<svg xmlns="http://www.w3.org/2000/svg" xmlns:xlink="http://www.w3.org/1999/xlink" width="500" zoomAndPan="magnify" viewBox="0 0 375 374.999991" height="500" preserveAspectRatio="xMidYMid meet" version="1.0"><defs><g/><clipPath id="a892da540b"><path d="M 127.597656 119 L 160 119 L 160 223 L 127.597656 223 Z M 127.597656 119 " clip-rule="nonzero"/></clipPath><clipPath id="e8d1715a72"><path d="M 190 114.929688 L 216 114.929688 L 216 141 L 190 141 Z M 190 114.929688 " clip-rule="nonzero"/></clipPath></defs><g clip-path="url(#a892da540b)"><path fill="#151f28" d="M 151.015625 157.796875 L 151.015625 134.976562 C 151.015625 131.855469 152.339844 130.171875 155.824219 130.171875 L 159.355469 130.171875 L 159.355469 119.363281 L 152.214844 119.363281 C 146.089844 119.363281 137.800781 123.085938 137.800781 133.777344 L 137.800781 155.394531 C 137.800781 161.402344 132.992188 165 128.191406 165 C 127.96875 165 127.765625 165.050781 127.597656 165.140625 L 127.597656 176.875 C 127.769531 176.964844 127.96875 177.015625 128.191406 177.015625 C 133 177.015625 137.800781 180.621094 137.800781 186.625 L 137.800781 208.246094 C 137.800781 218.9375 146.089844 222.660156 152.214844 222.660156 L 159.351562 222.660156 L 159.351562 211.851562 L 155.816406 211.851562 C 152.335938 211.851562 151.011719 210.171875 151.011719 207.042969 L 151.011719 184.226562 C 151.011719 175.820312 145.007812 172.214844 145.007812 172.214844 L 139 171.011719 L 145.007812 169.8125 C 145.007812 169.808594 151.015625 166.207031 151.015625 157.796875 Z M 151.015625 157.796875 " fill-opacity="1" fill-rule="nonzero"/></g><path fill="#151f28" d="M 225.476562 157.796875 L 225.476562 134.976562 C 225.476562 131.855469 224.152344 130.171875 220.671875 130.171875 L 217.136719 130.171875 L 217.136719 119.363281 L 224.28125 119.363281 C 230.40625 119.363281 238.695312 123.085938 238.695312 133.777344 L 238.695312 155.394531 C 238.695312 161.402344 243.5 165 248.300781 165 C 248.527344 165 248.726562 165.050781 248.898438 165.140625 L 248.898438 176.875 C 248.722656 176.964844 248.527344 177.015625 248.300781 177.015625 C 243.496094 177.015625 238.695312 180.621094 238.695312 186.625 L 238.695312 208.246094 C 238.695312 218.9375 230.40625 222.660156 224.28125 222.660156 L 217.140625 222.660156 L 217.140625 211.851562 L 220.675781 211.851562 C 224.160156 211.851562 225.480469 210.171875 225.480469 207.042969 L 225.480469 184.226562 C 225.480469 175.820312 231.484375 172.214844 231.484375 172.214844 L 237.492188 171.011719 L 231.484375 169.8125 C 231.484375 169.808594 225.476562 166.207031 225.476562 157.796875 Z M 225.476562 157.796875 " fill-opacity="1" fill-rule="nonzero"/><path fill="#f15a29" d="M 219.511719 173.898438 C 219.601562 172.945312 219.644531 171.980469 219.644531 171.007812 C 219.644531 170.03125 219.597656 169.070312 219.511719 168.117188 L 214.449219 167.742188 C 214.289062 166.4375 214.035156 165.160156 213.691406 163.921875 L 218.230469 161.636719 C 217.652344 159.777344 216.90625 157.988281 216.011719 156.292969 L 211.191406 157.886719 C 210.546875 156.753906 209.820312 155.671875 209.023438 154.652344 L 212.335938 150.804688 C 211.101562 149.320312 209.730469 147.949219 208.242188 146.714844 L 204.394531 150.027344 C 203.371094 149.230469 202.292969 148.507812 201.160156 147.863281 L 202.75 143.039062 C 201.058594 142.148438 199.269531 141.398438 197.410156 140.820312 L 195.125 145.359375 C 193.886719 145.015625 192.609375 144.761719 191.304688 144.601562 L 190.929688 139.539062 C 189.976562 139.453125 189.015625 139.40625 188.039062 139.40625 C 187.0625 139.40625 186.097656 139.453125 185.148438 139.539062 L 184.769531 144.601562 C 183.464844 144.761719 182.191406 145.015625 180.949219 145.359375 L 178.664062 140.820312 C 176.800781 141.398438 175.019531 142.144531 173.324219 143.039062 L 174.914062 147.863281 C 173.78125 148.507812 172.699219 149.230469 171.679688 150.027344 L 167.832031 146.714844 C 166.351562 147.949219 164.980469 149.320312 163.742188 150.804688 L 167.058594 154.652344 C 166.261719 155.671875 165.539062 156.753906 164.890625 157.886719 L 160.066406 156.292969 C 159.171875 157.988281 158.425781 159.777344 157.851562 161.636719 L 162.386719 163.921875 C 162.046875 165.160156 161.792969 166.4375 161.632812 167.742188 L 156.570312 168.117188 C 156.484375 169.070312 156.4375 170.035156 156.4375 171.007812 C 156.4375 171.984375 156.484375 172.945312 156.570312 173.898438 L 161.632812 174.273438 C 161.792969 175.578125 162.046875 176.855469 162.386719 178.09375 L 157.851562 180.382812 C 158.425781 182.238281 159.171875 184.027344 160.066406 185.722656 L 164.890625 184.132812 C 165.53125 185.265625 166.261719 186.347656 167.058594 187.363281 L 163.742188 191.214844 C 164.976562 192.695312 166.34375 194.066406 167.832031 195.304688 L 171.679688 191.992188 C 172.703125 192.789062 173.785156 193.511719 174.914062 194.15625 L 173.324219 198.980469 C 175.019531 199.871094 176.808594 200.617188 178.664062 201.195312 L 180.949219 196.65625 C 182.191406 197 183.464844 197.253906 184.769531 197.414062 L 185.148438 202.476562 C 186.101562 202.5625 187.0625 202.609375 188.039062 202.609375 C 189.015625 202.609375 189.976562 202.5625 190.929688 202.476562 L 191.304688 197.414062 C 192.609375 197.253906 193.886719 197 195.125 196.65625 L 197.410156 201.195312 C 199.269531 200.617188 201.058594 199.871094 202.75 198.980469 L 201.160156 194.15625 C 202.296875 193.511719 203.375 192.785156 204.398438 191.988281 L 208.246094 195.304688 C 209.730469 194.070312 211.101562 192.703125 212.339844 191.214844 L 209.023438 187.363281 C 209.820312 186.347656 210.542969 185.261719 211.191406 184.132812 L 216.015625 185.722656 C 216.90625 184.027344 217.652344 182.238281 218.230469 180.382812 L 213.691406 178.09375 C 214.035156 176.855469 214.289062 175.578125 214.449219 174.273438 Z M 190.148438 151.011719 C 190.148438 150.070312 190.902344 149.460938 191.820312 149.648438 C 191.820312 149.648438 196.125 150.527344 198.898438 152.132812 C 201.671875 153.730469 204.585938 157.015625 204.585938 157.015625 C 205.210938 157.722656 205.054688 158.675781 204.238281 159.144531 L 201.246094 160.871094 C 200.433594 161.339844 199.242188 161.167969 198.59375 160.492188 C 198.59375 160.492188 197.183594 159.011719 195.488281 158.03125 C 193.789062 157.050781 191.800781 156.570312 191.800781 156.570312 C 190.890625 156.351562 190.144531 155.402344 190.144531 154.46875 L 190.144531 151.011719 Z M 171.28125 157.015625 C 171.28125 157.015625 174.195312 153.730469 176.972656 152.132812 C 179.746094 150.53125 184.046875 149.648438 184.046875 149.648438 C 184.96875 149.460938 185.71875 150.070312 185.71875 151.011719 L 185.71875 154.46875 C 185.71875 155.40625 184.972656 156.351562 184.0625 156.570312 C 184.0625 156.570312 182.078125 157.050781 180.378906 158.03125 C 178.679688 159.011719 177.269531 160.492188 177.269531 160.492188 C 176.625 161.171875 175.429688 161.339844 174.621094 160.875 L 171.628906 159.148438 C 170.816406 158.679688 170.664062 157.722656 171.28125 157.015625 Z M 167.394531 178.484375 C 167.394531 178.484375 166.007812 174.316406 166.007812 171.117188 C 166.007812 167.910156 167.394531 163.746094 167.394531 163.746094 C 167.691406 162.859375 168.597656 162.511719 169.410156 162.984375 L 172.402344 164.710938 C 173.214844 165.179688 173.664062 166.296875 173.398438 167.199219 C 173.398438 167.199219 172.820312 169.15625 172.820312 171.117188 C 172.820312 173.078125 173.398438 175.035156 173.398438 175.035156 C 173.664062 175.9375 173.214844 177.054688 172.402344 177.523438 L 169.410156 179.25 C 168.601562 179.71875 167.695312 179.375 167.394531 178.484375 Z M 185.71875 191.222656 C 185.71875 192.160156 184.96875 192.773438 184.046875 192.582031 C 184.046875 192.582031 179.746094 191.703125 176.972656 190.101562 C 174.195312 188.5 171.28125 185.214844 171.28125 185.214844 C 170.664062 184.511719 170.816406 183.558594 171.628906 183.089844 L 174.625 181.363281 C 175.4375 180.894531 176.628906 181.066406 177.277344 181.742188 C 177.277344 181.742188 178.683594 183.21875 180.382812 184.203125 C 182.082031 185.183594 184.066406 185.660156 184.066406 185.660156 C 184.976562 185.882812 185.722656 186.828125 185.722656 187.769531 L 185.722656 191.222656 Z M 187.929688 179.015625 C 183.566406 179.015625 180.03125 175.476562 180.03125 171.117188 C 180.03125 166.757812 183.570312 163.21875 187.929688 163.21875 C 192.289062 163.21875 195.828125 166.757812 195.828125 171.117188 C 195.828125 175.476562 192.292969 179.015625 187.929688 179.015625 Z M 204.582031 185.214844 C 204.582031 185.214844 201.667969 188.5 198.894531 190.101562 C 196.121094 191.703125 191.816406 192.582031 191.816406 192.582031 C 190.894531 192.773438 190.144531 192.15625 190.144531 191.222656 L 190.144531 187.765625 C 190.144531 186.824219 190.890625 185.882812 191.800781 185.660156 C 191.800781 185.660156 193.789062 185.183594 195.480469 184.203125 C 197.179688 183.21875 198.589844 181.742188 198.589844 181.742188 C 199.238281 181.0625 200.429688 180.894531 201.242188 181.363281 L 204.234375 183.089844 C 205.046875 183.558594 205.203125 184.511719 204.582031 185.214844 Z M 208.46875 178.484375 C 208.171875 179.371094 207.265625 179.71875 206.453125 179.25 L 203.460938 177.523438 C 202.648438 177.054688 202.203125 175.9375 202.464844 175.035156 C 202.464844 175.035156 203.042969 173.078125 203.042969 171.117188 C 203.042969 169.15625 202.464844 167.199219 202.464844 167.199219 C 202.199219 166.296875 202.648438 165.179688 203.460938 164.710938 L 206.453125 162.984375 C 207.265625 162.511719 208.171875 162.855469 208.46875 163.746094 C 208.46875 163.746094 209.859375 167.914062 209.859375 171.117188 C 209.851562 174.320312 208.46875 178.484375 208.46875 178.484375 Z M 208.46875 178.484375 " fill-opacity="1" fill-rule="evenodd"/><g clip-path="url(#e8d1715a72)"><path fill="#f7941e" d="M 215.789062 128.9375 C 215.828125 128.550781 215.847656 128.15625 215.847656 127.761719 C 215.847656 127.371094 215.828125 126.976562 215.789062 126.589844 L 213.734375 126.441406 C 213.667969 125.910156 213.566406 125.394531 213.429688 124.890625 L 215.269531 123.960938 C 215.035156 123.207031 214.734375 122.484375 214.367188 121.792969 L 212.410156 122.441406 C 212.148438 121.980469 211.855469 121.542969 211.53125 121.125 L 212.878906 119.5625 C 212.378906 118.964844 211.824219 118.40625 211.21875 117.902344 L 209.65625 119.25 C 209.242188 118.925781 208.800781 118.628906 208.339844 118.371094 L 208.988281 116.414062 C 208.300781 116.054688 207.578125 115.75 206.820312 115.511719 L 205.890625 117.351562 C 205.390625 117.210938 204.875 117.113281 204.34375 117.046875 L 204.191406 114.992188 C 203.808594 114.957031 203.414062 114.9375 203.019531 114.9375 C 202.625 114.9375 202.230469 114.957031 201.847656 114.992188 L 201.695312 117.046875 C 201.164062 117.113281 200.648438 117.21875 200.148438 117.351562 L 199.21875 115.511719 C 198.460938 115.75 197.738281 116.046875 197.050781 116.414062 L 197.695312 118.371094 C 197.238281 118.632812 196.800781 118.925781 196.382812 119.25 L 194.820312 117.902344 C 194.21875 118.40625 193.660156 118.957031 193.160156 119.5625 L 194.503906 121.125 C 194.179688 121.539062 193.886719 121.980469 193.628906 122.441406 L 191.671875 121.792969 C 191.308594 122.484375 191.003906 123.207031 190.769531 123.960938 L 192.609375 124.890625 C 192.46875 125.394531 192.371094 125.910156 192.304688 126.441406 L 190.25 126.589844 C 190.214844 126.976562 190.191406 127.371094 190.191406 127.761719 C 190.191406 128.15625 190.210938 128.550781 190.242188 128.9375 L 192.300781 129.085938 C 192.367188 129.617188 192.46875 130.132812 192.605469 130.636719 L 190.765625 131.566406 C 191 132.320312 191.300781 133.042969 191.664062 133.734375 L 193.625 133.085938 C 193.886719 133.546875 194.175781 133.980469 194.5 134.398438 L 193.152344 135.960938 C 193.65625 136.5625 194.210938 137.121094 194.816406 137.625 L 196.378906 136.277344 C 196.792969 136.601562 197.230469 136.898438 197.691406 137.15625 L 197.042969 139.113281 C 197.734375 139.472656 198.457031 139.777344 199.214844 140.011719 L 200.140625 138.171875 C 200.644531 138.3125 201.160156 138.414062 201.691406 138.476562 L 201.839844 140.535156 C 202.226562 140.566406 202.621094 140.589844 203.015625 140.589844 C 203.410156 140.589844 203.804688 140.570312 204.1875 140.535156 L 204.339844 138.476562 C 204.867188 138.414062 205.382812 138.308594 205.886719 138.171875 L 206.816406 140.011719 C 207.570312 139.777344 208.292969 139.476562 208.984375 139.113281 L 208.335938 137.15625 C 208.796875 136.890625 209.234375 136.601562 209.652344 136.277344 L 211.214844 137.625 C 211.816406 137.121094 212.375 136.566406 212.875 135.960938 L 211.527344 134.398438 C 211.851562 133.988281 212.148438 133.546875 212.40625 133.085938 L 214.363281 133.734375 C 214.726562 133.042969 215.03125 132.320312 215.265625 131.566406 L 213.425781 130.636719 C 213.566406 130.132812 213.667969 129.617188 213.730469 129.085938 Z M 203.015625 135.027344 C 199 135.027344 195.746094 131.777344 195.746094 127.757812 C 195.746094 123.746094 198.996094 120.488281 203.015625 120.488281 C 207.027344 120.488281 210.285156 123.742188 210.285156 127.757812 C 210.285156 131.777344 207.03125 135.027344 203.015625 135.027344 Z M 203.015625 135.027344 " fill-opacity="1" fill-rule="evenodd"/></g><path fill="#f7941e" d="M 186.761719 216.230469 C 186.800781 215.84375 186.816406 215.449219 186.816406 215.054688 C 186.816406 214.660156 186.800781 214.265625 186.761719 213.882812 L 184.707031 213.730469 C 184.640625 213.203125 184.535156 212.6875 184.402344 212.183594 L 186.242188 211.253906 C 186.003906 210.5 185.707031 209.777344 185.339844 209.085938 L 183.382812 209.734375 C 183.121094 209.273438 182.828125 208.835938 182.503906 208.417969 L 183.851562 206.855469 C 183.347656 206.253906 182.796875 205.695312 182.191406 205.195312 L 180.628906 206.542969 C 180.214844 206.21875 179.773438 205.921875 179.3125 205.664062 L 179.960938 203.707031 C 179.269531 203.347656 178.546875 203.039062 177.792969 202.804688 L 176.863281 204.644531 C 176.359375 204.503906 175.84375 204.40625 175.3125 204.339844 L 175.164062 202.285156 C 174.777344 202.246094 174.386719 202.230469 173.992188 202.230469 C 173.597656 202.230469 173.203125 202.246094 172.816406 202.285156 L 172.667969 204.339844 C 172.136719 204.40625 171.621094 204.511719 171.117188 204.644531 L 170.1875 202.804688 C 169.433594 203.039062 168.710938 203.339844 168.019531 203.707031 L 168.664062 205.660156 C 168.203125 205.921875 167.765625 206.214844 167.347656 206.539062 L 165.785156 205.191406 C 165.1875 205.691406 164.628906 206.246094 164.125 206.851562 L 165.472656 208.414062 C 165.148438 208.828125 164.851562 209.269531 164.59375 209.730469 L 162.636719 209.082031 C 162.277344 209.769531 161.972656 210.492188 161.734375 211.25 L 163.574219 212.179688 C 163.433594 212.679688 163.335938 213.195312 163.269531 213.726562 L 161.214844 213.878906 C 161.183594 214.261719 161.160156 214.65625 161.160156 215.050781 C 161.160156 215.445312 161.175781 215.839844 161.210938 216.222656 L 163.265625 216.375 C 163.332031 216.90625 163.433594 217.421875 163.570312 217.921875 L 161.730469 218.851562 C 161.964844 219.609375 162.265625 220.332031 162.632812 221.019531 L 164.589844 220.375 C 164.851562 220.832031 165.144531 221.269531 165.46875 221.6875 L 164.121094 223.25 C 164.621094 223.851562 165.175781 224.410156 165.78125 224.910156 L 167.34375 223.566406 C 167.757812 223.890625 168.199219 224.183594 168.660156 224.441406 L 168.011719 226.398438 C 168.703125 226.761719 169.425781 227.066406 170.179688 227.300781 L 171.109375 225.460938 C 171.609375 225.601562 172.128906 225.699219 172.65625 225.765625 L 172.808594 227.820312 C 173.191406 227.855469 173.585938 227.878906 173.980469 227.878906 C 174.375 227.878906 174.769531 227.859375 175.15625 227.820312 L 175.304688 225.765625 C 175.835938 225.699219 176.351562 225.597656 176.855469 225.460938 L 177.78125 227.300781 C 178.539062 227.066406 179.261719 226.765625 179.953125 226.398438 L 179.304688 224.441406 C 179.761719 224.179688 180.199219 223.890625 180.617188 223.566406 L 182.179688 224.910156 C 182.78125 224.410156 183.339844 223.855469 183.84375 223.25 L 182.496094 221.6875 C 182.820312 221.273438 183.113281 220.832031 183.371094 220.375 L 185.328125 221.019531 C 185.691406 220.332031 185.996094 219.609375 186.230469 218.851562 L 184.390625 217.921875 C 184.53125 217.421875 184.636719 216.898438 184.695312 216.375 Z M 173.992188 222.320312 C 169.976562 222.320312 166.71875 219.070312 166.71875 215.050781 C 166.71875 211.039062 169.972656 207.78125 173.992188 207.78125 C 178.003906 207.78125 181.261719 211.035156 181.261719 215.050781 C 181.257812 219.070312 178.003906 222.320312 173.992188 222.320312 Z M 173.992188 222.320312 " fill-opacity="1" fill-rule="evenodd"/><g fill="#f15a29" fill-opacity="1"><g transform="translate(58.357325, 266.10455)"><g><path d="M 14.5 -3.65625 L 6.53125 -3.65625 L 5.0625 0 L -0.375 0 L 7.9375 -18.828125 L 13.171875 -18.828125 L 21.515625 0 L 15.96875 0 Z M 12.9375 -7.578125 L 10.515625 -13.609375 L 8.09375 -7.578125 Z M 12.9375 -7.578125 "/></g></g></g><g fill="#f15a29" fill-opacity="1"><g transform="translate(79.490243, 266.10455)"><g><path d="M 1.875 -18.828125 L 7.203125 -18.828125 L 7.203125 -4.21875 L 16.1875 -4.21875 L 16.1875 0 L 1.875 0 Z M 1.875 -18.828125 "/></g></g></g><g fill="#f15a29" fill-opacity="1"><g transform="translate(95.891115, 266.10455)"><g><path d="M 1.875 -18.828125 L 7.203125 -18.828125 L 7.203125 0 L 1.875 0 Z M 1.875 -18.828125 "/></g></g></g><g fill="#f15a29" fill-opacity="1"><g transform="translate(105.005697, 266.10455)"><g/></g></g><g fill="#f15a29" fill-opacity="1"><g transform="translate(112.829717, 266.10455)"><g><path d="M 5.265625 -15.5625 C 5.773438 -15.332031 6.164062 -14.988281 6.4375 -14.53125 C 6.71875 -14.070312 6.859375 -13.539062 6.859375 -12.9375 C 6.859375 -12.039062 6.570312 -11.3125 6 -10.75 C 5.425781 -10.195312 4.691406 -9.921875 3.796875 -9.921875 C 2.898438 -9.921875 2.160156 -10.195312 1.578125 -10.75 C 1.003906 -11.3125 0.71875 -12.039062 0.71875 -12.9375 C 0.71875 -13.34375 0.769531 -13.753906 0.875 -14.171875 C 0.988281 -14.585938 1.234375 -15.195312 1.609375 -16 L 3.328125 -19.953125 L 6.53125 -19.953125 Z M 5.265625 -15.5625 "/></g></g></g><g fill="#f15a29" fill-opacity="1"><g transform="translate(120.438645, 266.10455)"><g><path d="M 8.5 0.375 C 6.976562 0.375 5.5 0.1875 4.0625 -0.1875 C 2.625 -0.5625 1.457031 -1.0625 0.5625 -1.6875 L 2.3125 -5.625 C 3.15625 -5.0625 4.128906 -4.609375 5.234375 -4.265625 C 6.347656 -3.929688 7.445312 -3.765625 8.53125 -3.765625 C 10.570312 -3.765625 11.59375 -4.273438 11.59375 -5.296875 C 11.59375 -5.835938 11.300781 -6.238281 10.71875 -6.5 C 10.132812 -6.757812 9.195312 -7.03125 7.90625 -7.3125 C 6.488281 -7.613281 5.304688 -7.9375 4.359375 -8.28125 C 3.410156 -8.632812 2.59375 -9.195312 1.90625 -9.96875 C 1.226562 -10.738281 0.890625 -11.78125 0.890625 -13.09375 C 0.890625 -14.238281 1.203125 -15.273438 1.828125 -16.203125 C 2.453125 -17.128906 3.382812 -17.859375 4.625 -18.390625 C 5.875 -18.929688 7.40625 -19.203125 9.21875 -19.203125 C 10.457031 -19.203125 11.675781 -19.0625 12.875 -18.78125 C 14.082031 -18.5 15.140625 -18.09375 16.046875 -17.5625 L 14.40625 -13.609375 C 12.613281 -14.578125 10.878906 -15.0625 9.203125 -15.0625 C 8.140625 -15.0625 7.363281 -14.90625 6.875 -14.59375 C 6.394531 -14.28125 6.15625 -13.867188 6.15625 -13.359375 C 6.15625 -12.859375 6.441406 -12.484375 7.015625 -12.234375 C 7.585938 -11.984375 8.507812 -11.722656 9.78125 -11.453125 C 11.21875 -11.148438 12.40625 -10.820312 13.34375 -10.46875 C 14.289062 -10.125 15.109375 -9.566406 15.796875 -8.796875 C 16.484375 -8.035156 16.828125 -7.003906 16.828125 -5.703125 C 16.828125 -4.566406 16.515625 -3.539062 15.890625 -2.625 C 15.265625 -1.71875 14.320312 -0.988281 13.0625 -0.4375 C 11.8125 0.101562 10.289062 0.375 8.5 0.375 Z M 8.5 0.375 "/></g></g></g><g fill="#f15a29" fill-opacity="1"><g transform="translate(137.834323, 266.10455)"><g/></g></g><g fill="#f15a29" fill-opacity="1"><g transform="translate(145.658343, 266.10455)"><g><path d="M 11.265625 0.375 C 9.296875 0.375 7.523438 -0.0390625 5.953125 -0.875 C 4.390625 -1.707031 3.160156 -2.867188 2.265625 -4.359375 C 1.367188 -5.847656 0.921875 -7.53125 0.921875 -9.40625 C 0.921875 -11.289062 1.367188 -12.976562 2.265625 -14.46875 C 3.160156 -15.957031 4.390625 -17.117188 5.953125 -17.953125 C 7.523438 -18.785156 9.296875 -19.203125 11.265625 -19.203125 C 12.984375 -19.203125 14.53125 -18.894531 15.90625 -18.28125 C 17.289062 -17.675781 18.441406 -16.800781 19.359375 -15.65625 L 15.96875 -12.578125 C 14.75 -14.054688 13.269531 -14.796875 11.53125 -14.796875 C 10.507812 -14.796875 9.597656 -14.566406 8.796875 -14.109375 C 8.003906 -13.660156 7.390625 -13.03125 6.953125 -12.21875 C 6.515625 -11.40625 6.296875 -10.46875 6.296875 -9.40625 C 6.296875 -8.351562 6.515625 -7.414062 6.953125 -6.59375 C 7.390625 -5.78125 8.003906 -5.148438 8.796875 -4.703125 C 9.597656 -4.253906 10.507812 -4.03125 11.53125 -4.03125 C 13.269531 -4.03125 14.75 -4.765625 15.96875 -6.234375 L 19.359375 -3.171875 C 18.441406 -2.023438 17.289062 -1.144531 15.90625 -0.53125 C 14.53125 0.0703125 12.984375 0.375 11.265625 0.375 Z M 11.265625 0.375 "/></g></g></g><g fill="#f15a29" fill-opacity="1"><g transform="translate(165.500708, 266.10455)"><g><path d="M 11.375 0.375 C 9.382812 0.375 7.59375 -0.046875 6 -0.890625 C 4.414062 -1.734375 3.171875 -2.894531 2.265625 -4.375 C 1.367188 -5.863281 0.921875 -7.539062 0.921875 -9.40625 C 0.921875 -11.269531 1.367188 -12.945312 2.265625 -14.4375 C 3.171875 -15.925781 4.414062 -17.09375 6 -17.9375 C 7.59375 -18.78125 9.382812 -19.203125 11.375 -19.203125 C 13.363281 -19.203125 15.148438 -18.78125 16.734375 -17.9375 C 18.328125 -17.09375 19.570312 -15.925781 20.46875 -14.4375 C 21.375 -12.945312 21.828125 -11.269531 21.828125 -9.40625 C 21.828125 -7.539062 21.375 -5.863281 20.46875 -4.375 C 19.570312 -2.894531 18.328125 -1.734375 16.734375 -0.890625 C 15.148438 -0.046875 13.363281 0.375 11.375 0.375 Z M 11.375 -4.03125 C 12.320312 -4.03125 13.179688 -4.253906 13.953125 -4.703125 C 14.722656 -5.148438 15.332031 -5.78125 15.78125 -6.59375 C 16.226562 -7.414062 16.453125 -8.351562 16.453125 -9.40625 C 16.453125 -10.46875 16.226562 -11.40625 15.78125 -12.21875 C 15.332031 -13.03125 14.722656 -13.660156 13.953125 -14.109375 C 13.179688 -14.566406 12.320312 -14.796875 11.375 -14.796875 C 10.425781 -14.796875 9.566406 -14.566406 8.796875 -14.109375 C 8.023438 -13.660156 7.414062 -13.03125 6.96875 -12.21875 C 6.519531 -11.40625 6.296875 -10.46875 6.296875 -9.40625 C 6.296875 -8.351562 6.519531 -7.414062 6.96875 -6.59375 C 7.414062 -5.78125 8.023438 -5.148438 8.796875 -4.703125 C 9.566406 -4.253906 10.425781 -4.03125 11.375 -4.03125 Z M 11.375 -4.03125 "/></g></g></g><g fill="#000000" fill-opacity="1"><g transform="translate(188.249992, 266.10455)"><g><path d="M 1.875 -18.828125 L 10.78125 -18.828125 C 12.84375 -18.828125 14.671875 -18.441406 16.265625 -17.671875 C 17.859375 -16.898438 19.09375 -15.804688 19.96875 -14.390625 C 20.851562 -12.972656 21.296875 -11.3125 21.296875 -9.40625 C 21.296875 -7.507812 20.851562 -5.851562 19.96875 -4.4375 C 19.09375 -3.019531 17.859375 -1.925781 16.265625 -1.15625 C 14.671875 -0.382812 12.84375 0 10.78125 0 L 1.875 0 Z M 10.5625 -4.25 C 12.175781 -4.25 13.472656 -4.703125 14.453125 -5.609375 C 15.429688 -6.523438 15.921875 -7.789062 15.921875 -9.40625 C 15.921875 -11.019531 15.429688 -12.285156 14.453125 -13.203125 C 13.472656 -14.117188 12.175781 -14.578125 10.5625 -14.578125 L 7.203125 -14.578125 L 7.203125 -4.25 Z M 10.5625 -4.25 "/></g></g></g><g fill="#000000" fill-opacity="1"><g transform="translate(210.45838, 266.10455)"><g><path d="M 17 -4.109375 L 17 0 L 1.875 0 L 1.875 -18.828125 L 16.640625 -18.828125 L 16.640625 -14.703125 L 7.15625 -14.703125 L 7.15625 -11.53125 L 15.515625 -11.53125 L 15.515625 -7.5625 L 7.15625 -7.5625 L 7.15625 -4.109375 Z M 17 -4.109375 "/></g></g></g><g fill="#000000" fill-opacity="1"><g transform="translate(228.526226, 266.10455)"><g/></g></g><g fill="#000000" fill-opacity="1"><g transform="translate(236.350246, 266.10455)"><g><path d="M 19.796875 -18.828125 L 19.796875 0 L 14.46875 0 L 14.46875 -7.34375 L 7.203125 -7.34375 L 7.203125 0 L 1.875 0 L 1.875 -18.828125 L 7.203125 -18.828125 L 7.203125 -11.75 L 14.46875 -11.75 L 14.46875 -18.828125 Z M 19.796875 -18.828125 "/></g></g></g><g fill="#000000" fill-opacity="1"><g transform="translate(258.020904, 266.10455)"><g><path d="M 11.375 0.375 C 9.382812 0.375 7.59375 -0.046875 6 -0.890625 C 4.414062 -1.734375 3.171875 -2.894531 2.265625 -4.375 C 1.367188 -5.863281 0.921875 -7.539062 0.921875 -9.40625 C 0.921875 -11.269531 1.367188 -12.945312 2.265625 -14.4375 C 3.171875 -15.925781 4.414062 -17.09375 6 -17.9375 C 7.59375 -18.78125 9.382812 -19.203125 11.375 -19.203125 C 13.363281 -19.203125 15.148438 -18.78125 16.734375 -17.9375 C 18.328125 -17.09375 19.570312 -15.925781 20.46875 -14.4375 C 21.375 -12.945312 21.828125 -11.269531 21.828125 -9.40625 C 21.828125 -7.539062 21.375 -5.863281 20.46875 -4.375 C 19.570312 -2.894531 18.328125 -1.734375 16.734375 -0.890625 C 15.148438 -0.046875 13.363281 0.375 11.375 0.375 Z M 11.375 -4.03125 C 12.320312 -4.03125 13.179688 -4.253906 13.953125 -4.703125 C 14.722656 -5.148438 15.332031 -5.78125 15.78125 -6.59375 C 16.226562 -7.414062 16.453125 -8.351562 16.453125 -9.40625 C 16.453125 -10.46875 16.226562 -11.40625 15.78125 -12.21875 C 15.332031 -13.03125 14.722656 -13.660156 13.953125 -14.109375 C 13.179688 -14.566406 12.320312 -14.796875 11.375 -14.796875 C 10.425781 -14.796875 9.566406 -14.566406 8.796875 -14.109375 C 8.023438 -13.660156 7.414062 -13.03125 6.96875 -12.21875 C 6.519531 -11.40625 6.296875 -10.46875 6.296875 -9.40625 C 6.296875 -8.351562 6.519531 -7.414062 6.96875 -6.59375 C 7.414062 -5.78125 8.023438 -5.148438 8.796875 -4.703125 C 9.566406 -4.253906 10.425781 -4.03125 11.375 -4.03125 Z M 11.375 -4.03125 "/></g></g></g><g fill="#000000" fill-opacity="1"><g transform="translate(280.767023, 266.10455)"><g><path d="M 10.5625 0.375 C 7.769531 0.375 5.597656 -0.382812 4.046875 -1.90625 C 2.492188 -3.425781 1.71875 -5.585938 1.71875 -8.390625 L 1.71875 -18.828125 L 7.046875 -18.828125 L 7.046875 -8.546875 C 7.046875 -5.535156 8.238281 -4.03125 10.625 -4.03125 C 12.988281 -4.03125 14.171875 -5.535156 14.171875 -8.546875 L 14.171875 -18.828125 L 19.421875 -18.828125 L 19.421875 -8.390625 C 19.421875 -5.585938 18.644531 -3.425781 17.09375 -1.90625 C 15.539062 -0.382812 13.363281 0.375 10.5625 0.375 Z M 10.5625 0.375 "/></g></g></g><g fill="#000000" fill-opacity="1"><g transform="translate(301.89994, 266.10455)"><g><path d="M 8.5 0.375 C 6.976562 0.375 5.5 0.1875 4.0625 -0.1875 C 2.625 -0.5625 1.457031 -1.0625 0.5625 -1.6875 L 2.3125 -5.625 C 3.15625 -5.0625 4.128906 -4.609375 5.234375 -4.265625 C 6.347656 -3.929688 7.445312 -3.765625 8.53125 -3.765625 C 10.570312 -3.765625 11.59375 -4.273438 11.59375 -5.296875 C 11.59375 -5.835938 11.300781 -6.238281 10.71875 -6.5 C 10.132812 -6.757812 9.195312 -7.03125 7.90625 -7.3125 C 6.488281 -7.613281 5.304688 -7.9375 4.359375 -8.28125 C 3.410156 -8.632812 2.59375 -9.195312 1.90625 -9.96875 C 1.226562 -10.738281 0.890625 -11.78125 0.890625 -13.09375 C 0.890625 -14.238281 1.203125 -15.273438 1.828125 -16.203125 C 2.453125 -17.128906 3.382812 -17.859375 4.625 -18.390625 C 5.875 -18.929688 7.40625 -19.203125 9.21875 -19.203125 C 10.457031 -19.203125 11.675781 -19.0625 12.875 -18.78125 C 14.082031 -18.5 15.140625 -18.09375 16.046875 -17.5625 L 14.40625 -13.609375 C 12.613281 -14.578125 10.878906 -15.0625 9.203125 -15.0625 C 8.140625 -15.0625 7.363281 -14.90625 6.875 -14.59375 C 6.394531 -14.28125 6.15625 -13.867188 6.15625 -13.359375 C 6.15625 -12.859375 6.441406 -12.484375 7.015625 -12.234375 C 7.585938 -11.984375 8.507812 -11.722656 9.78125 -11.453125 C 11.21875 -11.148438 12.40625 -10.820312 13.34375 -10.46875 C 14.289062 -10.125 15.109375 -9.566406 15.796875 -8.796875 C 16.484375 -8.035156 16.828125 -7.003906 16.828125 -5.703125 C 16.828125 -4.566406 16.515625 -3.539062 15.890625 -2.625 C 15.265625 -1.71875 14.320312 -0.988281 13.0625 -0.4375 C 11.8125 0.101562 10.289062 0.375 8.5 0.375 Z M 8.5 0.375 "/></g></g></g><g fill="#000000" fill-opacity="1"><g transform="translate(319.295618, 266.10455)"><g><path d="M 17 -4.109375 L 17 0 L 1.875 0 L 1.875 -18.828125 L 16.640625 -18.828125 L 16.640625 -14.703125 L 7.15625 -14.703125 L 7.15625 -11.53125 L 15.515625 -11.53125 L 15.515625 -7.5625 L 7.15625 -7.5625 L 7.15625 -4.109375 Z M 17 -4.109375 "/></g></g></g></svg>